#N canvas 527 119 647 499 12;
#X obj 187 208 airspyhf~;
#X msg 172 71 open;
#X msg 191 100 close;
#X msg 203 132 start;
#X msg 218 158 stop;
#X obj 127 308 snapshot~;
#X obj 103 279 bng 15 250 50 0 empty empty empty 17 7 0 10 -262144
-1 -1;
#X floatatom 113 343 5 0 0 0 - - -;
#X obj 207 308 snapshot~;
#X floatatom 193 343 5 0 0 0 - - -;
#X msg 353 135 freq 1.047e+08;
#X msg 362 165 samplerate 100;
#X msg 357 97 version;
#X msg 143 39 devices;
#X connect 0 0 5 0;
#X connect 0 1 8 0;
#X connect 1 0 0 0;
#X connect 2 0 0 0;
#X connect 3 0 0 0;
#X connect 4 0 0 0;
#X connect 5 0 7 0;
#X connect 6 0 5 0;
#X connect 6 0 8 0;
#X connect 8 0 9 0;
#X connect 10 0 0 0;
#X connect 11 0 0 0;
#X connect 12 0 0 0;
#X connect 13 0 0 0;
